<svg xmlns="http://www.w3.org/2000/svg" width="1080" height="1920" viewBox="0 0 1080 1920">
  <defs>
    <linearGradient id="gold" x1="0" x2="1" y1="0" y2="1">
      <stop offset="0" stop-color="#f7df86"/>
      <stop offset="0.5" stop-color="#d6a93f"/>
      <stop offset="1" stop-color="#9f7426"/>
    </linearGradient>
    <filter id="softShadow" x="-20%" y="-20%" width="140%" height="140%">
      <feDropShadow dx="0" dy="12" stdDeviation="16" flood-color="#000000" flood-opacity="0.16"/>
    </filter>
  </defs>

  <rect width="1080" height="1920" fill="#fffaf0"/>
  <rect x="54" y="54" width="972" height="1812" rx="58" fill="#ffffff" stroke="#e8c55a" stroke-width="7"/>
  <rect x="86" y="86" width="908" height="1748" rx="42" fill="none" stroke="#131313" stroke-opacity="0.08" stroke-width="3"/>

  <circle cx="540" cy="358" r="168" fill="#fff7df" stroke="#e8c55a" stroke-width="5"/>
  <path d="M540 202 L578 316 L698 316 L601 386 L638 500 L540 430 L442 500 L479 386 L382 316 L502 316 Z" fill="url(#gold)" filter="url(#softShadow)"/>

  <text x="540" y="650" text-anchor="middle"
        font-family="'Noto Sans TC','Microsoft JhengHei',Arial,sans-serif"
        font-size="72" font-weight="950" letter-spacing="2" fill="#191919">
    能幫助到我嗎?
  </text>

  <text x="540" y="850" text-anchor="middle"
        font-family="'Noto Sans TC','Microsoft JhengHei',Arial,sans-serif"
        font-size="154" font-weight="950" fill="url(#gold)" filter="url(#softShadow)">
    22分鐘
  </text>
  <text x="540" y="1018" text-anchor="middle"
        font-family="'Noto Sans TC','Microsoft JhengHei',Arial,sans-serif"
        font-size="100" font-weight="950" fill="#111111">
    完整說明影片
  </text>

  <line x1="210" y1="1110" x2="870" y2="1110" stroke="#e8c55a" stroke-width="4"/>

  <text x="540" y="1226" text-anchor="middle"
        font-family="'Noto Sans TC','Microsoft JhengHei',Arial,sans-serif"
        font-size="44" font-weight="800" fill="#222222">
    看完就知道這套系統
  </text>
  <text x="540" y="1292" text-anchor="middle"
        font-family="'Noto Sans TC','Microsoft JhengHei',Arial,sans-serif"
        font-size="44" font-weight="800" fill="#222222">
    適不適合你
  </text>

  <rect x="235" y="1410" width="610" height="86" rx="43" fill="#111111"/>
  <text x="540" y="1468" text-anchor="middle"
        font-family="'Noto Sans TC','Microsoft JhengHei',Arial,sans-serif"
        font-size="34" font-weight="900" fill="#f5d464">
    代運營 / 課程 / 適合哪些人
  </text>

  <text x="540" y="1708" text-anchor="middle"
        font-family="Georgia,'Times New Roman',serif"
        font-size="50" font-weight="700" letter-spacing="4" fill="#b58a2c">
    chiwaai.com
  </text>
</svg>
